<svg width="170.993" height="136.131" viewBox="0 0 45.242 36.018" xmlns="http://www.w3.org/2000/svg"><defs><radialGradient id="a" spreadMethod="pad" gradientTransform="matrix(15.33418 0 0 -15.33418 11.756 10.012)" gradientUnits="userSpaceOnUse" r="1" cy="0" cx="0" fy="0" fx="0"><stop offset="0" stop-color="#ecf090"/><stop offset=".526" stop-color="#b09c5b"/><stop offset="1" stop-color="#866331"/></radialGradient></defs><path d="M.264.717H45.24v-.71H.264zm18.323 5.544c-.686.748-1.034 1.677-1.034 2.76 0 .885.289 1.897.858 3.01-.524.314-.997.622-1.409.919-.46.33-.908.7-1.333 1.103-.422.4-.777.813-1.054 1.229-.28.419-.504.889-.666 1.396a5.266 5.266 0 00-.246 1.61c0 .573.12 1.15.36 1.712a4.63 4.63 0 00.994 1.483 4.264 4.264 0 001.737 1.04c.67.217 1.468.326 2.37.326 1.706 0 3.243-.55 4.573-1.634.876 1.085 2.219 1.634 3.996 1.634.392 0 .803-.035 1.221-.104a12.47 12.47 0 001.288-.286l.21-.058-.365-1.038-.19.066a4.26 4.26 0 01-1.398.248c-.542 0-1.065-.204-1.555-.607-.487-.4-.986-1.02-1.483-1.843.97-1.53 1.68-3.36 2.112-5.442h2.976v-.992h-6.757v.992h2.752a14.355 14.355 0 01-1.646 4.459l-3.773-6.568c.782-.524 1.399-1.096 1.836-1.703.477-.662.72-1.365.72-2.089 0-.787-.213-1.448-.632-1.963-.429-.528-1.11-.796-2.027-.796-.91 0-1.729.381-2.435 1.135m1.833 4.189a6.998 6.998 0 01-.35-.662 5.235 5.235 0 01-.229-.583c-.112-.33-.17-.762-.17-1.286 0-.562.15-1.017.444-1.35.3-.334.626-.496.997-.496.58 0 1.351.18 1.351 1.733 0 .505-.172 1.025-.513 1.544-.317.483-.777.944-1.37 1.372zm-3.338 9.176c-.493-.62-.743-1.46-.743-2.496 0-.468.056-.904.167-1.297.11-.39.28-.76.508-1.102.23-.344.519-.671.86-.974a8.668 8.668 0 011.062-.79l4.203 7.35c-.77.649-1.583.978-2.42.978-1.578 0-2.767-.545-3.637-1.669M31.013 6.071v.992h2.162v14.569h-2.162v.992h13.46l.264-6.487H43.67l-.02.18c-.045.383-.103.75-.173 1.092-.07.343-.153.676-.248.988a5.572 5.572 0 01-.364.89 7.425 7.425 0 01-.531.877c-.381.536-.837.918-1.354 1.135-.528.22-1.168.333-1.903.333h-3.152V7.062h2.161v-.991zm-30.59 0v.992h2.162v14.569H.423v.992h7.073v-.992H5.334v-7.16h1.733c.726 0 1.296.358 1.739 1.092.075.13.148.293.215.483.068.194.132.421.19.676.059.258.103.48.133.668.028.18.042.323.042.424v.204h.947V9.933h-.947v.203c0 .101-.014.244-.042.425a9.97 9.97 0 01-.133.667 6.276 6.276 0 01-.19.676c-.068.19-.14.354-.214.48-.444.737-1.014 1.096-1.74 1.096H5.334V7.063h3.602c1.107 0 1.95.397 2.574 1.214.534.707.934 1.772 1.19 3.168l.03.167h.969l-.268-5.541zm41.699 19.431a2.213 2.213 0 00-.495.188 2.347 2.347 0 00-.813.702 2.465 2.465 0 00-.348.697c-.084.26-.126.547-.126.853 0 .38.065.728.193 1.033a2.226 2.226 0 001.252 1.261c.27.107.557.161.857.161.3 0 .632-.069.985-.206.32-.132.378-.107.424-.063a.38.38 0 01.08.13l.026.063h.31l.003-1.638h.685v-.37h-2.493v.37h.901v.365c0 .29-.08.524-.247.715-.16.187-.38.277-.675.277-.432 0-.756-.167-.99-.512-.239-.351-.36-.885-.36-1.586 0-.704.121-1.243.36-1.604.237-.354.56-.527.99-.527.145 0 .276.015.389.045a1.062 1.062 0 01.626.441c.158.218.274.48.345.776l.019.078h.322v-1.71h-.305l-.028.057a.538.538 0 01-.092.14c-.006.006-.025.024-.08.024a.814.814 0 01-.265-.064 2.452 2.452 0 00-.45-.117 3.366 3.366 0 00-.48-.04h-.003c-.172 0-.347.02-.517.061m-40.34 0a2.222 2.222 0 00-.495.188 2.406 2.406 0 00-.442.3 2.335 2.335 0 00-.372.402 2.47 2.47 0 00-.347.697c-.084.26-.126.547-.126.853 0 .38.065.728.193 1.033.128.314.304.58.522.786.215.209.46.369.73.475.269.107.557.161.856.161.338 0 .65-.048.93-.143.06-.022.114-.04.16-.05.078-.018.132-.022.17.002a.177.177 0 01.053.052.56.56 0 01.057.086l.029.053h.302V28.7H3.68l-.018.078a2.183 2.183 0 01-.345.777 1.35 1.35 0 01-.143.17 1.29 1.29 0 01-.194.152.96.96 0 01-.286.118c-.115.03-.247.045-.392.045-.432 0-.757-.167-.99-.512-.239-.352-.36-.886-.36-1.586 0-.704.122-1.243.36-1.604.236-.355.56-.527.99-.527.145 0 .275.015.389.044.112.03.209.071.29.123a1.053 1.053 0 01.336.319c.158.217.273.479.345.776l.018.078h.323v-1.71h-.305l-.028.057a.536.536 0 01-.092.14c-.006.006-.025.024-.08.024a.816.816 0 01-.265-.064 2.448 2.448 0 00-.45-.117 3.376 3.376 0 00-.48-.04h-.004a2.18 2.18 0 00-.517.06m15.588-.06l-.018.08c-.024.116-.062.116-.076.116a.376.376 0 01-.098-.02 1.59 1.59 0 01-.185-.068 1.417 1.417 0 00-.565-.108c-.456 0-.821.133-1.085.395a1.35 1.35 0 00-.302.454c-.069.17-.1.363-.096.575.002.259.06.478.172.65.11.168.261.308.451.419.126.073.253.133.378.178.122.045.264.088.419.126.384.098.667.23.84.392a.77.77 0 01.247.59c0 .26-.08.456-.244.6-.163.146-.398.22-.696.22-.209 0-.4-.047-.572-.14a1.346 1.346 0 01-.45-.406 1.99 1.99 0 01-.344-.816l-.015-.084h-.329l.036 1.803h.303l.029-.056c.023-.047.046-.086.067-.119a.254.254 0 01.054-.06.165.165 0 01.058-.03.37.37 0 01.097-.01c.002 0 .019 0 .064.016.04.015.089.035.147.061.149.067.294.116.433.149.14.033.279.049.412.049.462 0 .85-.136 1.151-.403.316-.281.476-.654.476-1.106 0-.23-.034-.436-.1-.609a1.16 1.16 0 00-.31-.454 1.857 1.857 0 00-.462-.307 3.896 3.896 0 00-.618-.219 4.675 4.675 0 01-.177-.048l-.141-.042a3.027 3.027 0 01-.287-.114 1.722 1.722 0 01-.144-.078.658.658 0 01-.248-.263.52.52 0 01-.059-.249c0-.19.071-.35.218-.49.144-.137.335-.204.586-.204a.79.79 0 01.386.11c.13.07.232.159.304.265a2.498 2.498 0 01.292.577l.023.068h.316l-.015-1.39zm-10.925.06a2.213 2.213 0 00-.494.189 2.347 2.347 0 00-.814.702 2.47 2.47 0 00-.347.697c-.084.26-.127.547-.127.853 0 .38.066.728.193 1.033a2.25 2.25 0 001.253 1.261c.268.107.557.161.856.161a2.22 2.22 0 001.586-.636 2.28 2.28 0 00.52-.787c.13-.324.196-.671.196-1.032 0-.305-.042-.593-.127-.853a2.47 2.47 0 00-.347-.698 2.496 2.496 0 00-.51-.514 2.089 2.089 0 00-.63-.325 2.461 2.461 0 00-.686-.11c-.179 0-.35.018-.522.06m-.47 4.026c-.239-.352-.36-.886-.36-1.586 0-.704.121-1.243.36-1.604.236-.355.56-.527.99-.527.428 0 .751.172.987.527.241.363.364.903.364 1.604 0 .7-.122 1.234-.36 1.586-.234.345-.558.512-.99.512-.434 0-.758-.167-.992-.512m32.429-3.997v.37h.652v2.577l-1.792-2.947h-1.751v.37h.652v4.05h-.652v.37h1.713v-.37h-.653v-3.72l2.54 4.166h.351v-4.496h.653v-.37zm-5.35 0v.37h.613v4.05h-.614v.37h2.097v-.37h-.614V25.9h.614v-.37zm-4.915 0l-.085 2.084h.364l.01-.092c.046-.503.159-.89.334-1.15.215-.318.484-.472.824-.472h.308v4.05h-.614v.37h2.096v-.37h-.614V25.9h.308c.338 0 .608.154.824.473.175.26.288.646.335 1.149l.009.092h.364l-.085-2.084zm-4.504 0v.37h.614v4.05h-.614v.37h3.91l.078-1.93h-.389l-.01.09a3.4 3.4 0 01-.048.305c-.02.097-.043.189-.07.277-.025.083-.06.166-.1.246a2.203 2.203 0 01-.148.243.86.86 0 01-.366.307c-.144.061-.32.091-.523.091h-.851V25.9h.614v-.37zm-2.037 0v.37h.652v2.994c0 .378-.108.656-.33.852-.219.194-.523.293-.905.293-.14 0-.265-.013-.372-.04a.844.844 0 01-.285-.132.556.556 0 01-.187-.251 1.161 1.161 0 01-.071-.435v-3.281h.614v-.37h-2.097v.37h.614v2.923c0 1.044.6 1.573 1.784 1.573.25 0 .475-.03.67-.087.2-.06.375-.154.522-.28.3-.258.451-.631.451-1.11V25.9h.653v-.37zm-9.016 0v.37h.653v2.577l-1.792-2.947H9.69v.37h.652v4.05H9.69v.37h1.712v-.37h-.652v-3.72l2.54 4.166h.35v-4.496h.653v-.37zM.264 36.025H45.24v-.71H.264z" fill="url(#a)"/></svg>