<?xml version="1.0" encoding="UTF-8" standalone="no"?>
<!-- Created with Inkscape (http://www.inkscape.org/) -->

<svg
   width="45.242001mm"
   height="36.018002mm"
   viewBox="0 0 45.242001 36.018002"
   version="1.1"
   id="svg5"
   xml:space="preserve"
   inkscape:version="1.2.2 (732a01da63, 2022-12-09)"
   sodipodi:docname="рисунок.svg"
   xmlns:inkscape="http://www.inkscape.org/namespaces/inkscape"
   xmlns:sodipodi="http://sodipodi.sourceforge.net/DTD/sodipodi-0.dtd"
   xmlns="http://www.w3.org/2000/svg"
   xmlns:svg="http://www.w3.org/2000/svg"><sodipodi:namedview
     id="namedview7"
     pagecolor="#ffffff"
     bordercolor="#000000"
     borderopacity="0.25"
     inkscape:showpageshadow="2"
     inkscape:pageopacity="0.0"
     inkscape:pagecheckerboard="0"
     inkscape:deskcolor="#d1d1d1"
     inkscape:document-units="mm"
     showgrid="false"
     inkscape:zoom="2.0560856"
     inkscape:cx="-38.422525"
     inkscape:cy="71.738259"
     inkscape:window-width="1920"
     inkscape:window-height="996"
     inkscape:window-x="-8"
     inkscape:window-y="-8"
     inkscape:window-maximized="1"
     inkscape:current-layer="layer1" /><defs
     id="defs2"><radialGradient
       id="radialGradient30"
       spreadMethod="pad"
       gradientTransform="matrix(15.334179,0,0,-15.334179,11.755711,10.012312)"
       gradientUnits="userSpaceOnUse"
       r="1"
       cy="0"
       cx="0"
       fy="0"
       fx="0"><stop
         id="stop24"
         offset="0"
         style="stop-opacity:1;stop-color:#ecf090" /><stop
         id="stop26"
         offset="0.525641"
         style="stop-opacity:1;stop-color:#b09c5b" /><stop
         id="stop28"
         offset="1"
         style="stop-opacity:1;stop-color:#866331" /></radialGradient></defs><g
     inkscape:label="Слой 1"
     inkscape:groupmode="layer"
     id="layer1"><path
       id="path32"
       style="fill:url(#radialGradient30);stroke:none;stroke-width:0.352777"
       d="M 0.26380087,0.7169614 H 45.2412 V 0.00647139 H 0.26380087 Z M 18.58673,6.2605124 c -0.68545,0.7486 -1.03329,1.67746 -1.03329,2.76084 v 0 c 0,0.8851197 0.28822,1.8968896 0.8576,3.0088396 v 0 c -0.52387,0.31433 -0.9973,0.62301 -1.40899,0.91934 v 0 c -0.45932,0.32985 -0.9077,0.70132 -1.33315,1.10349 v 0 c -0.42192,0.40005 -0.77717,0.81315 -1.05375,1.22873 v 0 c -0.27975,0.4191 -0.50376,0.889 -0.66639,1.39629 v 0 c -0.16334,0.50941 -0.24589,1.05128 -0.24589,1.61008 v 0 c 0,0.57326 0.12065,1.1497 0.35948,1.71203 v 0 c 0.23813,0.56197 0.57256,1.06115 0.99484,1.48308 v 0 c 0.47131,0.47201 1.05586,0.82197 1.73672,1.04069 v 0 c 0.67063,0.2159 1.46826,0.32526 2.37067,0.32526 v 0 c 1.70497,0 3.24202,-0.54963 4.5727,-1.63371 v 0 c 0.8756,1.08408 2.21862,1.63371 3.99592,1.63371 v 0 c 0.39193,0 0.80257,-0.0349 1.22096,-0.10407 v 0 c 0.41381,-0.0681 0.84702,-0.16439 1.28764,-0.2861 v 0 l 0.2099,-0.0579 -0.36442,-1.03858 -0.1912,0.0667 c -0.47202,0.16405 -0.94192,0.24765 -1.39736,0.24765 v 0 c -0.54186,0 -1.06468,-0.20425 -1.55433,-0.60678 v 0 c -0.48719,-0.40075 -0.98602,-1.02093 -1.48344,-1.84326 v 0 c 0.96979,-1.53 1.67958,-3.3595 2.11173,-5.4416 v 0 h 2.97604 v -0.99236 h -6.75711 v 0.99236 h 2.75237 c -0.29527,1.56246 -0.84843,3.05929 -1.64641,4.45841 v 0 l -3.77261,-6.56731 c 0.78176,-0.52388 1.39877,-1.09608 1.83586,-1.7028599 v 0 c 0.47766,-0.6628697 0.71931,-1.3659597 0.71931,-2.0894997 v 0 c 0,-0.78705 -0.21202,-1.4478 -0.63076,-1.96321 v 0 c -0.42933,-0.52811 -1.11125,-0.79587 -2.02707,-0.79587 v 0 c -0.91051,0 -1.72931,0.38135 -2.43557,1.13559 m 1.83338,4.1885296 C 20.28253,10.217252 20.1647,9.9946421 20.07016,9.7872121 v 0 C 19.97596,9.5815421 19.89941,9.3861024 19.8412,9.2037224 v 0 c -0.11253,-0.3295 -0.16933,-0.762 -0.16933,-1.28553 v 0 c 0,-0.56197 0.14958,-1.01705 0.44309,-1.35043 v 0 c 0.30021,-0.33373 0.62653,-0.496 0.9973,-0.496 v 0 c 0.57997,0 1.35079,0.17991 1.35079,1.73355 v 0 c 0,0.50482 -0.17251,1.02446 -0.51294,1.54375 v 0 c -0.31679,0.4833097 -0.77717,0.9440296 -1.37054,1.3723096 v 0 z m -3.33763,9.17611 c -0.49318,-0.61984 -0.74365,-1.46015 -0.74365,-2.49661 v 0 c 0,-0.46708 0.0561,-0.90311 0.16686,-1.29611 v 0 c 0.11007,-0.39017 0.28081,-0.76094 0.50835,-1.10208 v 0 c 0.22966,-0.34395 0.51894,-0.67169 0.86078,-0.97402 v 0 c 0.30233,-0.2674 0.65864,-0.53269 1.0608,-0.79057 v 0 l 4.20335,7.35048 c -0.76976,0.64876 -1.58327,0.9779 -2.42076,0.9779 v 0 c -1.57692,0 -2.76578,-0.5454 -3.63573,-1.66899 M 31.01332,6.0707024 v 0.99201 h 2.16182 V 21.631732 h -2.16182 v 0.99236 h 13.45953 l 0.26459,-6.48723 h -1.06857 l -0.0208,0.17992 c -0.0441,0.38276 -0.10195,0.75035 -0.1718,1.09184 v 0 c -0.0702,0.3429 -0.15346,0.67592 -0.24836,0.98849 v 0 c -0.0935,0.30233 -0.2159,0.60219 -0.36371,0.89076 v 0 c -0.14923,0.29104 -0.32808,0.58596 -0.53128,0.87595 v 0 c -0.381,0.53622 -0.83644,0.91828 -1.35397,1.13488 v 0 c -0.52775,0.22119 -1.16804,0.33303 -1.90323,0.33303 v 0 H 35.92365 V 7.0627124 h 2.16182 v -0.99201 z m -30.59006313,0 v 0.99201 H 2.5850789 V 21.631732 H 0.42325687 v 0.99236 H 7.4957449 v -0.99236 h -2.161821 v -7.15998 h 1.733196 c 0.726016,0 1.2954,0.35842 1.73849,1.0922 v 0 c 0.07549,0.13053 0.148166,0.29351 0.215193,0.4833 v 0 c 0.06773,0.19333 0.13194,0.42087 0.190148,0.67593 v 0 c 0.05891,0.25752 0.103365,0.48013 0.132644,0.66745 v 0 c 0.02822,0.18062 0.04233,0.3235 0.04233,0.42475 v 0 0.2032 H 10.333133 V 9.9329121 H 9.3859249 v 0.2031999 c 0,0.10125 -0.0141,0.24412 -0.04233,0.42439 v 0 c -0.02928,0.18733 -0.07373,0.40993 -0.132644,0.66746 v 0 c -0.05821,0.25541 -0.122415,0.4826 -0.190148,0.67557 v 0 c -0.06738,0.1912 -0.1397,0.35418 -0.213429,0.48083 v 0 c -0.444854,0.73695 -1.014238,1.09538 -1.740254,1.09538 v 0 H 5.3339239 V 7.0627124 h 3.602567 c 1.1066621,0 1.9487441,0.39758 2.5735121,1.21426 v 0 c 0.533755,0.70661 0.933805,1.7723596 1.189921,3.1682996 v 0 l 0.03069,0.16651 h 0.968377 L 13.431233,6.0707024 Z M 42.12159,25.502052 c -0.1711,0.0423 -0.33761,0.10548 -0.4946,0.18768 v 0 c -0.15663,0.0822 -0.30515,0.18344 -0.44273,0.30092 v 0 c -0.13723,0.11712 -0.26176,0.25188 -0.37077,0.40111 v 0 c -0.1464,0.20143 -0.26317,0.43603 -0.34714,0.69708 v 0 c -0.084,0.26035 -0.12664,0.54681 -0.12664,0.85302 v 0 c 0,0.38029 0.0653,0.72813 0.19297,1.03293 v 0 c 0.12841,0.31468 0.30445,0.57926 0.52246,0.78599 v 0 c 0.2152,0.20885 0.46108,0.36901 0.73025,0.47555 v 0 c 0.26882,0.10689 0.55669,0.16086 0.85619,0.16086 v 0 c 0.30127,0 0.63218,-0.0691 0.98566,-0.20602 v 0 c 0.32068,-0.13264 0.37748,-0.10689 0.42334,-0.0635 v 0 c 0.0286,0.0272 0.0557,0.0709 0.0801,0.13018 v 0 l 0.0261,0.0628 h 0.31009 l 0.003,-1.6376 h 0.68474 v -0.36971 h -2.49308 v 0.36971 h 0.9017 v 0.36512 c 0,0.29034 -0.0808,0.52388 -0.2473,0.71438 v 0 c -0.16016,0.18697 -0.38064,0.27764 -0.67451,0.27764 v 0 c -0.43285,0 -0.7567,-0.16722 -0.99024,-0.51188 v 0 c -0.23884,-0.35172 -0.35984,-0.88548 -0.35984,-1.58645 v 0 c 0,-0.70344 0.121,-1.24318 0.36019,-1.60372 v 0 c 0.23601,-0.35454 0.55986,-0.52705 0.98989,-0.52705 v 0 c 0.14464,0 0.27552,0.0152 0.38841,0.0445 v 0 c 0.11219,0.0296 0.2092,0.0706 0.28963,0.12206 v 0 c 0.0811,0.0512 0.14605,0.1016 0.19368,0.14922 v 0 c 0.049,0.0494 0.097,0.10654 0.14287,0.17004 v 0 c 0.15769,0.21837 0.27376,0.47943 0.34502,0.77647 v 0 l 0.0187,0.0776 h 0.32244 v -1.70956 h -0.3048 l -0.0286,0.0564 c -0.0413,0.0822 -0.0727,0.1217 -0.0917,0.1404 v 0 c -0.006,0.006 -0.0251,0.024 -0.0794,0.024 v 0 c -0.043,0 -0.12383,-0.0113 -0.266,-0.0642 v 0 c -0.1464,-0.0533 -0.29809,-0.0924 -0.45049,-0.11677 v 0 c -0.15029,-0.024 -0.31115,-0.0374 -0.47837,-0.0399 v 0 c -10e-4,0 -0.003,0 -0.004,0 v 0 c -0.17145,0 -0.34713,0.0191 -0.51717,0.0607 m -40.3401411,0 c -0.171097,0.0423 -0.337608,0.10548 -0.494947,0.18768 v 0 c -0.156633,0.0825 -0.30515303,0.1838 -0.44203103,0.30092 v 0 c -0.13723,0.11712 -0.262466,0.25188 -0.371122,0.40111 v 0 c -0.146755,0.20214 -0.263525,0.43638 -0.347486,0.69709 v 0 c -0.08396,0.26035 -0.1262940037,0.54751 -0.1262940037,0.85301 v 0 c 0,0.37994 0.0649100037,0.72814 0.1929690037,1.03294 v 0 c 0.128411,0.31467 0.304447,0.57926 0.522111,0.78599 v 0 c 0.215547,0.20884 0.46108103,0.369 0.73060303,0.47554 v 0 c 0.268464,0.10689 0.556683,0.16087 0.856191,0.16087 v 0 c 0.337962,0 0.65017,-0.048 0.930275,-0.14359 v 0 c 0.05962,-0.0219 0.112889,-0.0388 0.159809,-0.0494 v 0 c 0.07761,-0.0183 0.131586,-0.0226 0.168628,0.002 v 0 c 0.02787,0.018 0.04128,0.0335 0.05398,0.0515 v 0 c 0.01834,0.0219 0.03669,0.0508 0.05644,0.0864 v 0 l 0.02893,0.0529 h 0.302683 v -1.69686 h -0.322792 l -0.01834,0.078 c -0.07161,0.2974 -0.187325,0.55845 -0.34537,0.77647 v 0 c -0.04516,0.0632 -0.09313,0.1203 -0.142522,0.17004 v 0 c -0.04833,0.0483 -0.1143,0.0995 -0.194381,0.15275 v 0 c -0.0762,0.0494 -0.171802,0.0889 -0.285397,0.11783 v 0 c -0.115358,0.03 -0.247297,0.0448 -0.391936,0.0448 v 0 c -0.432858,0 -0.757061,-0.16722 -0.990247,-0.51188 v 0 c -0.238896,-0.35171 -0.35989803,-0.88581 -0.35989803,-1.58643 v 0 c 0,-0.70344 0.12135503,-1.24319 0.36018603,-1.60373 v 0 c 0.235655,-0.35454 0.559505,-0.52705 0.989894,-0.52705 v 0 c 0.144286,0 0.274814,0.0152 0.388408,0.0445 v 0 c 0.112184,0.0296 0.209198,0.0706 0.289631,0.12206 v 0 c 0.08043,0.0512 0.145344,0.10125 0.193322,0.14923 v 0 c 0.04939,0.0494 0.09772,0.10654 0.143228,0.17004 v 0 c 0.157692,0.21766 0.273403,0.47907 0.345017,0.77646 v 0 l 0.01834,0.0776 h 0.322792 v -1.70956 h -0.305502 l -0.02787,0.0564 c -0.04128,0.0822 -0.07267,0.12171 -0.09172,0.14041 v 0 c -0.006,0.006 -0.02469,0.024 -0.07937,0.024 v 0 c -0.04304,0 -0.123472,-0.0113 -0.265995,-0.0642 v 0 c -0.146402,-0.0533 -0.297744,-0.0924 -0.450144,-0.11677 v 0 c -0.150636,-0.024 -0.311503,-0.0374 -0.479072,-0.0399 v 0 c -0.0014,0 -0.0028,0 -0.0042,0 v 0 c -0.171097,0 -0.34678,0.019 -0.516819,0.0607 m 15.5871291,-0.0607 -0.0173,0.0804 c -0.0247,0.115 -0.0621,0.115 -0.0765,0.115 v 0 c -0.0113,0 -0.0392,-0.002 -0.0974,-0.0187 v 0 c -0.0497,-0.0141 -0.11147,-0.037 -0.18556,-0.0688 v 0 c -0.1658,-0.0716 -0.3556,-0.10795 -0.56444,-0.10795 v 0 c -0.4565,0 -0.82162,0.133 -1.08585,0.39441 v 0 c -0.133,0.133 -0.2346,0.2861 -0.30198,0.45473 v 0 c -0.0681,0.16898 -0.10019,0.36266 -0.0953,0.57432 v 0 c 0.002,0.25929 0.0596,0.47801 0.17145,0.64946 v 0 c 0.10936,0.16863 0.26141,0.30939 0.45156,0.41946 v 0 c 0.12559,0.073 0.25259,0.13299 0.37747,0.1785 v 0 c 0.12241,0.0448 0.26388,0.0875 0.4191,0.1263 v 0 c 0.38453,0.0977 0.6671,0.2293 0.83996,0.39158 v 0 c 0.16652,0.15593 0.2473,0.34925 0.2473,0.5909 v 0 c 0,0.2593 -0.0794,0.45509 -0.24412,0.59867 v 0 c -0.16334,0.1464 -0.39758,0.22048 -0.69639,0.22048 v 0 c -0.20813,0 -0.4004,-0.0473 -0.57185,-0.14075 v 0 c -0.17321,-0.0945 -0.3242,-0.23072 -0.44944,-0.4057 v 0 c -0.1718,-0.23601 -0.28716,-0.51047 -0.34396,-0.81598 v 0 l -0.0152,-0.0832 h -0.32879 l 0.036,1.8027 h 0.30304 l 0.0282,-0.0561 c 0.0236,-0.0469 0.0459,-0.0864 0.067,-0.11853 v 0 c 0.0173,-0.0257 0.0353,-0.0462 0.0543,-0.0607 v 0 c 0.0173,-0.0138 0.0363,-0.0229 0.0582,-0.0293 v 0 c 0.0251,-0.007 0.0575,-0.0106 0.097,-0.0106 v 0 c 0.002,0 0.0187,2.6e-4 0.0635,0.0166 v 0 c 0.0399,0.0145 0.0889,0.0346 0.14781,0.061 v 0 c 0.14817,0.0663 0.29352,0.11606 0.43251,0.14852 v 0 c 0.14041,0.0328 0.27869,0.049 0.41169,0.049 v 0 c 0.46285,0 0.85055,-0.13582 1.15182,-0.40288 v 0 c 0.31538,-0.28151 0.47519,-0.65369 0.47519,-1.10595 v 0 c 0,-0.23037 -0.0332,-0.43568 -0.0995,-0.6089 v 0 c -0.067,-0.17674 -0.17215,-0.32949 -0.31079,-0.45438 v 0 c -0.13269,-0.12137 -0.28791,-0.22438 -0.46183,-0.30657 v 0 c -0.17074,-0.0801 -0.37818,-0.15346 -0.61771,-0.21908 v 0 c -0.0646,-0.0162 -0.12418,-0.0328 -0.1771,-0.0483 v 0 l -0.14111,-0.0416 c -0.0413,-0.0148 -0.0871,-0.0314 -0.13617,-0.0501 v 0 c -0.0476,-0.0187 -0.0988,-0.0402 -0.15064,-0.0639 v 0 c -0.0536,-0.0261 -0.1016,-0.0522 -0.14428,-0.0783 v 0 c -0.0392,-0.0243 -0.0734,-0.0487 -0.1016,-0.0734 v 0 c -0.0564,-0.049 -0.10548,-0.11289 -0.14641,-0.18979 v 0 c -0.0392,-0.0744 -0.0582,-0.15558 -0.0582,-0.24836 v 0 c 0,-0.19014 0.0709,-0.34995 0.21802,-0.48965 v 0 c 0.14358,-0.13759 0.33514,-0.20497 0.58526,-0.20497 v 0 c 0.12665,0 0.25647,0.0367 0.38629,0.10936 v 0 c 0.12947,0.0702 0.23178,0.15946 0.30374,0.26564 v 0 c 0.0635,0.0917 0.11959,0.18663 0.16722,0.28188 v 0 c 0.048,0.0956 0.0896,0.19508 0.12453,0.29492 v 0 l 0.0236,0.0684 h 0.31609 l -0.0155,-1.38995 z m -10.9244641,0.0607 c -0.171099,0.0423 -0.337609,0.10548 -0.494597,0.18768 v 0 c -0.156985,0.0826 -0.305858,0.1838 -0.442735,0.30092 v 0 c -0.13723,0.11712 -0.261761,0.25188 -0.370769,0.40111 v 0 c -0.146756,0.20214 -0.263525,0.43638 -0.347486,0.69708 v 0 c -0.08396,0.26035 -0.126295,0.54751 -0.126295,0.85302 v 0 c 0,0.38065 0.06526,0.72849 0.19297,1.03293 v 0 c 0.128764,0.31468 0.3048,0.57926 0.522464,0.78599 v 0 c 0.214841,0.20885 0.461081,0.36901 0.730249,0.47555 v 0 c 0.268465,0.10689 0.556684,0.16086 0.856192,0.16086 v 0 c 0.299508,0 0.587375,-0.054 0.856192,-0.16086 v 0 c 0.269523,-0.10654 0.515056,-0.2667 0.729898,-0.47484 v 0 c 0.213783,-0.20496 0.38876,-0.46955 0.519642,-0.7874 v 0 c 0.130526,-0.32385 0.196143,-0.67134 0.196143,-1.03223 v 0 c 0,-0.30515 -0.04233,-0.59231 -0.126648,-0.85302 v 0 c -0.08361,-0.26105 -0.200729,-0.49565 -0.347133,-0.69779 v 0 c -0.141503,-0.19227 -0.312953,-0.36513 -0.510158,-0.51365 v 0 c -0.196495,-0.14711 -0.408517,-0.25647 -0.630412,-0.32562 v 0 c -0.220488,-0.0688 -0.45085,-0.10583 -0.686155,-0.11042 v 0 c -0.178503,8e-4 -0.350308,0.0183 -0.521403,0.0607 m -0.470607,4.02626 c -0.238477,-0.35172 -0.35948,-0.88583 -0.35948,-1.58645 v 0 c 0,-0.70344 0.121003,-1.24318 0.360187,-1.60372 v 0 c 0.235653,-0.35454 0.559503,-0.52705 0.989893,-0.52705 v 0 c 0.427919,0 0.751065,0.17251 0.986719,0.52705 v 0 c 0.2413,0.36301 0.363714,0.90276 0.363714,1.60372 v 0 c 0,0.70062 -0.121356,1.23437 -0.360185,1.58645 v 0 c -0.233188,0.34466 -0.55739,0.51188 -0.990248,0.51188 v 0 c -0.432858,0 -0.756708,-0.16722 -0.9906,-0.51188 M 38.40189,25.530862 v 0.36971 h 0.65193 v 2.57704 l -1.79176,-2.94675 h -1.75154 v 0.36971 h 0.65264 v 4.04989 h -0.65264 v 0.37007 h 1.71309 v -0.37007 h -0.65264 v -3.71863 l 2.54071,4.16525 h 0.3503 v -4.49651 h 0.65264 v -0.36971 z m -5.35058,0 v 0.36971 h 0.61383 v 4.04989 h -0.61383 v 0.37007 h 2.0962 v -0.37007 h -0.61348 v -4.04989 h 0.61348 v -0.36971 z m -4.91419,0 -0.0854,2.08386 h 0.36477 l 0.009,-0.0921 c 0.0469,-0.50271 0.15945,-0.88935 0.33479,-1.149 v 0 c 0.21448,-0.31855 0.48365,-0.47307 0.82408,-0.47307 v 0 h 0.30763 v 4.04989 h -0.6142 v 0.37006 h 2.09656 v -0.37006 h -0.61419 v -4.04989 h 0.30762 c 0.33867,0 0.60819,0.15487 0.82409,0.47307 v 0 c 0.17533,0.25965 0.28787,0.64629 0.33479,1.149 v 0 l 0.009,0.0921 h 0.36442 l -0.0847,-2.08386 z m -4.50392,0 v 0.36971 h 0.61383 v 4.04989 H 23.6332 v 0.37007 h 3.90913 l 0.0783,-1.9304 h -0.38841 l -0.0102,0.09 c -0.0124,0.10795 -0.0282,0.2099 -0.0483,0.30621 v 0 c -0.0194,0.0963 -0.0427,0.18838 -0.0695,0.27693 v 0 c -0.0254,0.0829 -0.0593,0.1658 -0.10019,0.24553 v 0 c -0.0423,0.0818 -0.0924,0.16369 -0.14781,0.24342 v 0 c -0.10301,0.14569 -0.22648,0.24871 -0.36583,0.30727 v 0 c -0.14393,0.0607 -0.32032,0.091 -0.52352,0.091 v 0 h -0.85125 v -4.04989 h 0.61418 v -0.36971 z m -2.03694,0 v 0.36971 h 0.65194 v 2.99401 c 0,0.37818 -0.10795,0.65616 -0.33056,0.85195 v 0 c -0.21837,0.19474 -0.52246,0.29352 -0.90452,0.29352 v 0 c -0.14005,0 -0.26529,-0.0134 -0.37183,-0.0399 v 0 c -0.10195,-0.0254 -0.19791,-0.0702 -0.28575,-0.13265 v 0 c -0.0801,-0.0575 -0.14148,-0.1397 -0.18699,-0.25047 v 0 c -0.0469,-0.11465 -0.0706,-0.26106 -0.0706,-0.43462 v 0 -3.28189 h 0.61384 v -0.36972 h -2.09656 v 0.36971 h 0.61384 v 2.92382 c 0,1.04352 0.60042,1.57268 1.78399,1.57268 v 0 c 0.24942,0 0.47484,-0.0293 0.67028,-0.0875 v 0 c 0.19932,-0.0589 0.37465,-0.1531 0.52211,-0.2794 v 0 c 0.29951,-0.25788 0.45085,-0.63147 0.45085,-1.10983 v 0 -3.01978 h 0.65229 v -0.36971 z m -9.015939,0 v 0.36971 h 0.652637 v 2.57704 l -1.79211,-2.94675 H 9.6896579 v 0.36971 h 0.6522881 v 4.04989 H 9.6896579 v 0.37007 h 1.7123841 v -0.37007 h -0.651904 v -3.71863 l 2.540707,4.16525 h 0.349956 v -4.49651 h 0.652639 v -0.36971 z M 0.26377087,36.024562 H 45.24117 v -0.71049 H 0.26380087 Z" /></g></svg>
