<?xml version="1.0" encoding="UTF-8" standalone="no"?>
<!-- Created with Inkscape (http://www.inkscape.org/) -->

<svg
   width="512"
   height="512"
   viewBox="0 0 135.46666 135.46667"
   version="1.1"
   id="svg5"
   xml:space="preserve"
   inkscape:version="1.2.2 (732a01da63, 2022-12-09)"
   sodipodi:docname="bankrot.svg"
   xmlns:inkscape="http://www.inkscape.org/namespaces/inkscape"
   xmlns:sodipodi="http://sodipodi.sourceforge.net/DTD/sodipodi-0.dtd"
   xmlns="http://www.w3.org/2000/svg"
   xmlns:svg="http://www.w3.org/2000/svg"><sodipodi:namedview
     id="namedview7"
     pagecolor="#ffffff"
     bordercolor="#000000"
     borderopacity="0.25"
     inkscape:showpageshadow="2"
     inkscape:pageopacity="0.0"
     inkscape:pagecheckerboard="0"
     inkscape:deskcolor="#d1d1d1"
     inkscape:document-units="mm"
     showgrid="false"
     inkscape:zoom="1.104894"
     inkscape:cx="71.952602"
     inkscape:cy="293.24079"
     inkscape:window-width="1920"
     inkscape:window-height="1057"
     inkscape:window-x="-8"
     inkscape:window-y="-8"
     inkscape:window-maximized="1"
     inkscape:current-layer="layer1" /><defs
     id="defs2" /><g
     inkscape:label="Слой 1"
     inkscape:groupmode="layer"
     id="layer1"><path
       style="fill:#000000;stroke-width:0.290246"
       d="m 101.29543,135.25083 c -6.024281,-1.62041 -6.875806,-9.69871 -1.318268,-12.50619 3.959058,-1.99998 8.905288,0.28754 9.836338,4.54908 1.07875,4.9377 -3.57644,9.28633 -8.51807,7.95711 z M 41.000236,133.05887 C 12.771545,130.84565 -6.4854163,102.93669 2.1982841,76.823503 3.2848931,73.555896 11.645807,54.916304 12.797697,53.193463 c 2.038724,-3.049272 5.354342,-5.395856 9.322562,-6.597922 2.679026,-0.811538 42.111736,-0.811538 44.790761,0 3.968222,1.202066 7.283839,3.54865 9.322575,6.597922 1.112295,1.663626 9.453777,20.261613 10.411307,23.212841 1.424098,4.389177 1.628036,4.025972 -2.260565,4.025972 -4.977988,0 -4.714661,-0.443221 -4.714661,7.935526 0,6.604396 0,6.604396 -3.857975,8.464763 -6.303988,3.039869 -6.046793,2.48223 -4.536731,9.836445 0.979707,4.77129 0.979707,4.77129 -4.028065,7.70977 -8.334042,4.8903 -8.418568,5.29825 -1.93179,9.3235 1.69179,1.04979 3.187691,2.01804 3.324233,2.15163 0.32933,0.32224 -3.244879,2.38587 -6.568325,3.79238 -6.530613,2.76377 -13.97275,3.9691 -21.070787,3.41258 z m 11.216573,-19.08949 c 31.211626,-9.19012 24.819426,-54.069133 -7.701169,-54.069133 -33.826609,0 -38.6156302,47.269903 -5.532958,54.612993 3.108713,0.69002 10.00629,0.40656 13.234127,-0.54386 z M 42.170938,105.5227 c -0.0011,-2.51623 -0.0011,-2.51623 -1.281844,-3.03317 -2.736356,-1.10447 -5.13322,-4.19923 -5.557349,-7.17554 -0.250464,-1.757595 4.321599,-1.69357 4.607991,0.06453 0.64823,3.979385 7.004079,4.73734 8.787568,1.047951 1.661817,-3.437687 -0.207857,-6.221751 -4.652635,-6.92805 -9.943809,-1.58013 -12.171665,-13.693067 -3.185575,-17.320073 1.280747,-0.516938 1.280747,-0.516938 1.281844,-3.03317 0.0011,-2.516233 0.0011,-2.516233 2.344702,-2.516233 2.343606,0 2.343606,0 2.344702,2.516233 0.0011,2.516232 0.0011,2.516232 1.281844,3.03317 2.736368,1.104464 5.133219,4.199233 5.557361,7.175544 0.250462,1.757595 -4.3216,1.69357 -4.607991,-0.06453 -0.648241,-3.979389 -7.00408,-4.73735 -8.787581,-1.047953 -1.661805,3.437688 0.207869,6.221751 4.652635,6.92805 9.943821,1.58013 12.171678,13.693069 3.185576,17.320071 -1.280747,0.51694 -1.280747,0.51694 -1.281844,3.03317 -0.0011,2.51623 -0.0011,2.51623 -2.344702,2.51623 -2.343596,0 -2.343596,0 -2.344702,-2.51623 z m 80.042812,11.39865 c -12.6209,-2.06327 -12.46223,-20.369963 0.19389,-22.370736 12.84222,-2.030188 18.53576,15.651596 6.87666,21.356036 -1.2103,0.59214 -4.72151,1.43989 -5.37912,1.29872 -0.0806,-0.0172 -0.84171,-0.14511 -1.69143,-0.28402 z m -48.39003,-0.207 c -0.685055,-0.20189 -0.650154,-0.25106 0.732379,-1.03178 3.194865,-1.80418 3.189605,-1.78172 1.891121,-8.07499 -0.483365,-2.34273 -0.878851,-4.46973 -0.878851,-4.72669 0,-0.31245 1.26736,-1.08339 3.825722,-2.32719 5.016753,-2.439036 4.920823,-2.325052 5.025057,-5.970983 0.08426,-2.94581 0.08426,-2.94581 1.548958,-1.75747 11.251341,9.128113 1.676622,27.962443 -12.144386,23.889103 z m 29.8153,-27.474614 c -6.024277,-1.620432 -6.875789,-9.698719 -1.31826,-12.506194 3.95906,-1.999983 8.90529,0.287536 9.83634,4.54908 1.07876,4.937706 -3.57642,9.28633 -8.51808,7.957114 z M 28.160963,37.447818 c 0.142776,-5.766809 -1.697956,-5.183414 16.354677,-5.183414 18.052632,0 16.211902,-0.583395 16.354676,5.183414 0.09588,3.875021 0.09588,3.875021 -16.354676,3.875021 -16.450605,0 -16.450605,0 -16.354677,-3.875021 z m 3.5261,-11.434946 C 25.65989,9.9915589 23.028108,2.1305873 23.446503,1.3988557 c 0.821086,-1.43598985 1.150793,-1.47721932 11.849568,-1.48176891 9.968666,-0.0042396 9.968666,-0.0042396 12.010954,4.05277811 3.56349,7.0788631 4.915365,7.0788631 8.478844,0 2.0423,-4.05701743 2.0423,-4.05701743 4.980159,-4.05277811 6.27034,0.0090436 6.246435,-0.51689388 0.674691,14.84626721 -4.574109,12.61237 -4.574109,12.61237 -16.879318,12.687365 -12.305209,0.075 -12.305209,0.075 -12.874338,-1.437847 z"
       id="path814" /></g></svg>
