<svg width="512" height="512" viewBox="0 0 135.467 135.467" xmlns="http://www.w3.org/2000/svg"><path d="M101.295 135.25c-6.024-1.62-6.875-9.698-1.318-12.505 3.96-2 8.905.287 9.836 4.549 1.08 4.937-3.576 9.286-8.518 7.957zM41 133.06c-28.228-2.213-47.485-30.122-38.802-56.235 1.087-3.268 9.448-21.908 10.6-23.63 2.038-3.05 5.354-5.396 9.322-6.598 2.68-.812 42.112-.812 44.791 0 3.968 1.202 7.284 3.548 9.323 6.597 1.112 1.664 9.453 20.262 10.41 23.213 1.425 4.39 1.629 4.026-2.26 4.026-4.978 0-4.714-.443-4.714 7.936 0 6.604 0 6.604-3.858 8.465-6.304 3.04-6.047 2.482-4.537 9.836.98 4.771.98 4.771-4.028 7.71-8.334 4.89-8.419 5.298-1.932 9.323 1.692 1.05 3.188 2.018 3.324 2.152.33.322-3.245 2.386-6.568 3.792-6.53 2.764-13.973 3.97-21.07 3.413zm11.217-19.09c31.211-9.19 24.82-54.069-7.701-54.069-33.827 0-38.616 47.27-5.533 54.613 3.108.69 10.006.407 13.234-.544zm-10.046-8.446c-.001-2.517-.001-2.517-1.282-3.033-2.736-1.105-5.133-4.2-5.557-7.176-.25-1.758 4.321-1.694 4.608.065.648 3.979 7.004 4.737 8.787 1.047 1.662-3.437-.208-6.221-4.652-6.928-9.944-1.58-12.172-13.693-3.186-17.32 1.28-.517 1.28-.517 1.282-3.033.001-2.516.001-2.516 2.345-2.516 2.343 0 2.343 0 2.344 2.516.001 2.516.001 2.516 1.282 3.033 2.737 1.105 5.133 4.2 5.558 7.176.25 1.757-4.322 1.693-4.608-.065-.649-3.979-7.005-4.737-8.788-1.048-1.662 3.438.208 6.222 4.653 6.928 9.943 1.58 12.171 13.694 3.185 17.32-1.28.517-1.28.517-1.282 3.034 0 2.516 0 2.516-2.344 2.516s-2.344 0-2.345-2.516zm80.043 11.398c-12.621-2.063-12.462-20.37.194-22.37 12.842-2.03 18.535 15.651 6.876 21.356-1.21.592-4.721 1.44-5.379 1.298-.08-.017-.842-.145-1.691-.284zm-48.39-.207c-.685-.202-.65-.25.732-1.031 3.195-1.805 3.19-1.782 1.891-8.075-.483-2.343-.879-4.47-.879-4.727 0-.313 1.268-1.083 3.826-2.327 5.017-2.44 4.92-2.325 5.025-5.971.084-2.946.084-2.946 1.55-1.758 11.25 9.128 1.676 27.963-12.145 23.89zm29.815-27.474c-6.024-1.62-6.876-9.699-1.318-12.506 3.959-2 8.905.287 9.836 4.549 1.079 4.937-3.576 9.286-8.518 7.957zM28.161 37.448c.143-5.767-1.698-5.184 16.355-5.184 18.052 0 16.212-.583 16.354 5.184.096 3.875.096 3.875-16.354 3.875-16.451 0-16.451 0-16.355-3.875zm3.526-11.435C25.66 9.992 23.028 2.13 23.447 1.399c.82-1.436 1.15-1.477 11.85-1.482 9.968-.004 9.968-.004 12.01 4.053 3.564 7.079 4.915 7.079 8.479 0 2.042-4.057 2.042-4.057 4.98-4.053 6.27.01 6.246-.517.675 14.846-4.574 12.613-4.574 12.613-16.88 12.688-12.305.075-12.305.075-12.874-1.438z"/></svg>